<svg width="1260" height="450" viewBox="0 0 1260 450" fill="none" xmlns="http://www.w3.org/2000/svg">
<g clip-path="url(#clip0_1188_5923)">
<path fill-rule="evenodd" clip-rule="evenodd" d="M1207.12 411.181L1221.71 403.829C1224.5 409.151 1228.85 410.396 1232.11 410.396C1235.37 410.396 1237.54 408.992 1237.54 406.486C1237.54 404.305 1235.68 402.742 1230.09 400.545C1222.95 397.88 1210.54 393.661 1210.54 381.145C1210.54 370.509 1219.54 361.118 1233.66 361.118C1242.36 361.118 1249.95 364.727 1254.61 369.415L1244.68 380.677C1242.81 378.329 1239.09 376.14 1235.05 376.14C1231.64 376.14 1230.09 377.703 1230.09 379.741C1230.09 382.089 1232.26 383.025 1236.77 384.904C1245.61 388.347 1255.85 393.351 1255.85 405.867C1255.85 417.598 1247.31 426.203 1233.35 426.203C1222.33 426.203 1210.85 420.881 1207.12 411.181Z" fill="#8A80FF"/>
<path fill-rule="evenodd" clip-rule="evenodd" d="M1156.37 384.9H1182.14C1180.13 379.428 1176.23 376.303 1169.57 376.303C1162.58 376.303 1158.4 379.586 1156.37 384.9ZM1202.63 396.948H1155.14C1155.91 405.871 1160.57 411.343 1169.57 411.343C1176.4 411.343 1180.89 408.369 1182.61 403.357H1201.7C1198.59 416.975 1187.1 426.199 1169.88 426.199C1149.08 426.199 1135.11 413.215 1135.11 393.656C1135.11 374.114 1149.24 360.963 1169.26 360.963C1189.28 360.963 1202.63 373.947 1202.63 393.506V396.948Z" fill="#8A80FF"/>
<path fill-rule="evenodd" clip-rule="evenodd" d="M952.544 424.954H972.256V362.376H952.544V424.954ZM951.616 340.945C951.616 334.838 956.581 329.992 962.483 329.992C968.376 329.992 973.349 334.838 973.349 340.945C973.349 346.894 968.376 351.899 962.483 351.899C956.581 351.899 951.616 346.894 951.616 340.945Z" fill="#8A80FF"/>
<path fill-rule="evenodd" clip-rule="evenodd" d="M1080.86 377.86V400.235C1080.86 405.398 1083.81 408.682 1088 408.682H1095.45V424.171C1093.9 425.266 1089.7 426.202 1085.52 426.202C1072.32 426.202 1061.15 415.875 1061.15 402.574V377.86H1050.75V362.378H1061.15V338.291H1080.86V362.378H1095.61V377.86H1080.86Z" fill="#8A80FF"/>
<path fill-rule="evenodd" clip-rule="evenodd" d="M1022.82 424.954H1042.53V362.376H1022.82V424.954ZM1021.89 340.945C1021.89 334.838 1026.86 329.992 1032.75 329.992C1038.65 329.992 1043.61 334.838 1043.61 340.945C1043.61 346.894 1038.65 351.899 1032.75 351.899C1026.86 351.899 1021.89 346.894 1021.89 340.945Z" fill="#8A80FF"/>
<path fill-rule="evenodd" clip-rule="evenodd" d="M987.434 424.954H1007.3V338.288H987.434V424.954Z" fill="#8A80FF"/>
<path fill-rule="evenodd" clip-rule="evenodd" d="M1105.06 424.954H1124.78V362.376H1105.06V424.954ZM1104.14 340.945C1104.14 334.838 1109.11 329.992 1115 329.992C1120.9 329.992 1125.87 334.838 1125.87 340.945C1125.87 346.894 1120.9 351.899 1115 351.899C1109.11 351.899 1104.14 346.894 1104.14 340.945Z" fill="#8A80FF"/>
<path fill-rule="evenodd" clip-rule="evenodd" d="M874.021 393.661C874.021 374.895 887.838 361.118 908.627 361.118C927.26 361.118 939.984 372.071 942.62 387.72H922.13C920.108 382.398 914.993 378.956 908.627 378.805C900.09 378.956 893.881 385.222 893.881 393.661C893.881 402.108 900.09 408.365 908.627 408.524C914.993 408.365 920.108 404.931 922.13 399.609H942.62C939.984 415.25 927.26 426.203 908.627 426.203C887.838 426.203 874.021 412.434 874.021 393.661Z" fill="#8A80FF"/>
<path fill-rule="evenodd" clip-rule="evenodd" d="M842.991 393.661C842.991 385.372 836.31 378.805 828.245 378.805C820.022 378.805 813.499 385.372 813.499 393.661C813.499 401.957 820.022 408.524 828.245 408.524C836.31 408.524 842.991 401.957 842.991 393.661ZM869.996 408.683V424.95C868.596 425.569 866.739 426.203 864.716 426.203C856.336 426.203 849.506 421.976 845.627 415.567C840.662 422.134 833.36 426.203 824.366 426.203C807.133 426.203 793.638 411.808 793.638 393.661C793.638 375.514 807.133 361.118 824.366 361.118C831.502 361.118 837.404 363.625 842.054 367.852V362.379H861.766V402.576C861.766 407.739 864.559 408.683 867.195 408.683H869.996Z" fill="#8A80FF"/>
<path fill-rule="evenodd" clip-rule="evenodd" d="M791.928 377.859H777.19V424.948H757.329V377.859H746.919V362.377H757.329V353.463C757.329 340.162 768.495 329.994 781.683 329.994C785.877 329.994 790.071 330.771 791.621 331.873V347.514H784.17C779.976 347.514 777.19 350.639 777.19 355.81V362.377H791.928V377.859Z" fill="#8A80FF"/>
<path fill-rule="evenodd" clip-rule="evenodd" d="M1190.89 197.668C1190.89 169.821 1169.92 149.207 1142.3 148.684C1114.17 149.207 1093.7 169.821 1093.7 197.668C1093.7 225.507 1114.17 246.129 1142.3 246.644C1169.92 246.129 1190.89 225.507 1190.89 197.668ZM1028.24 197.668C1028.24 135.796 1073.76 90.4281 1142.3 90.4281C1210.84 90.4281 1255.86 135.796 1255.86 197.668C1255.86 259.533 1210.84 304.908 1142.3 304.908C1073.76 304.908 1028.24 259.533 1028.24 197.668Z" fill="white"/>
<path fill-rule="evenodd" clip-rule="evenodd" d="M967.338 145.596V219.319C967.338 236.331 977.056 247.166 990.866 247.166H1015.42V298.196C1010.31 301.805 996.492 304.906 982.682 304.906C939.208 304.906 902.382 270.88 902.382 227.06V145.596H868.113V94.5502H902.382V15.1652H967.338V94.5502H1015.94V145.596H967.338Z" fill="white"/>
<path fill-rule="evenodd" clip-rule="evenodd" d="M803.155 197.668C803.155 170.345 781.674 148.684 754.558 148.684C727.45 148.684 705.968 170.345 705.968 197.668C705.968 224.992 727.45 246.644 754.558 246.644C781.674 246.644 803.155 224.992 803.155 197.668ZM868.112 197.668C868.112 257.471 823.614 304.908 767.345 304.908C743.817 304.908 724.381 296.652 709.037 282.74V425.029L643.569 424.513V94.5524L709.037 95.0679V112.596C724.381 98.6847 743.817 90.4281 767.345 90.4281C823.614 90.4281 868.112 137.858 868.112 197.668Z" fill="white"/>
<path fill-rule="evenodd" clip-rule="evenodd" d="M609.11 94.554H544.146V213.128C544.146 232.726 530.856 246.646 512.946 246.646C495.556 246.646 482.258 232.726 482.258 213.128V94.554H416.79V221.9C416.79 272.423 451.059 304.902 512.946 304.902C524.301 304.902 534.696 303.791 544.146 301.69V365.735H450.028V423.991H544.146H609.614V365.735V94.554H609.11Z" fill="white"/>
<path fill-rule="evenodd" clip-rule="evenodd" d="M392.305 92.4929V150.757C387.702 149.718 381.045 148.687 373.381 148.687C341.158 148.687 318.134 168.285 318.134 202.311V300.779H252.666V94.5551H318.134V122.91C331.44 102.804 351.388 90.4308 375.419 90.4308C381.564 90.4308 387.702 90.9463 392.305 92.4929Z" fill="white"/>
<path fill-rule="evenodd" clip-rule="evenodd" d="M158.579 219.294C151.402 235.617 135.154 246.134 115.049 246.634C86.9181 246.11 66.4751 227.543 66.4751 199.696C66.4751 172.206 86.4223 153.829 114.026 152.838L114.042 152.806H157.414V180.129H222.882V94.5499H114.026C46.0635 95.0179 1.00706 138.157 1.00706 199.696C1.00706 261.569 46.512 304.882 115.049 304.882C175.591 304.882 217.162 269.73 226.62 219.294H158.579Z" fill="white"/>
</g>
<defs>
<clipPath id="clip0_1188_5923">
<rect width="1259" height="412.431" fill="white" transform="translate(1 15.1638)"/>
</clipPath>
</defs>
</svg>
